<?xml version="1.0" standalone="no"?><!DOCTYPE svg PUBLIC "-//W3C//DTD SVG 1.1//EN" "http://www.w3.org/Graphics/SVG/1.1/DTD/svg11.dtd"><svg t="1601373170840" class="icon" viewBox="0 0 1024 1024" version="1.1" xmlns="http://www.w3.org/2000/svg" p-id="4234" xmlns:xlink="http://www.w3.org/1999/xlink" width="200" height="200"><defs><style type="text/css"></style></defs><path d="M64.1 88.49v846.95H960.17V88.49H64.1z m597.38 99.64H860.6v199.29H661.48V188.13z m199.12 249.1v199.28H661.48V437.23H860.6z m-448.03-249.1H611.7v199.29H412.57V188.13z m199.13 249.1v199.28H412.57V437.23H611.7z m-448.05-249.1h199.14v199.29H163.65V188.13z m199.14 249.1v199.28H163.65V437.23h199.14zM163.65 885.61V686.34h199.14v199.28H163.65z m248.92 0V686.34H611.7v199.28H412.57z m248.91 0V686.34H860.6v199.28H661.48z" p-id="4235"></path></svg>